<?xml version="1.0" encoding="utf-8"?>
<!-- Generator: Adobe Illustrator 19.1.1, SVG Export Plug-In . SVG Version: 6.00 Build 0)  -->
<svg version="1.1" id="Capa_1" xmlns="http://www.w3.org/2000/svg" xmlns:xlink="http://www.w3.org/1999/xlink" x="0px" y="0px"
	 viewBox="-225 26.5 508.5 508.5" style="enable-background:new -225 26.5 508.5 508.5;" xml:space="preserve">
<style type="text/css">
	.st0{fill:#FFFFFF;}
</style>
<g>
	<g>
		<g>
			<path class="st0" d="M38.5,26.6C32.8,26,26,27.4,18,32.3c0,0-132.5,115.6-138.3,121.3h-72.9c-17.5,0-31.8,14.3-31.8,31.8v194.7
				c0,17.6,14.2,31.8,31.8,31.8h72.9C-114.5,417.7,18,529.2,18,529.2c8,4.8,14.7,6.2,20.5,5.7c11.8-1.1,20-11,22.5-21.4
				C61.2,512.5,61.2,49,61,48C58.6,37.6,50.3,27.7,38.5,26.6z"/>
		</g>
	</g>
</g>
</svg>
